<svg xmlns="http://www.w3.org/2000/svg" viewBox="0 0 64 64" width="64" height="64">
  <defs>
    <linearGradient id="bgGrad" x1="0%" y1="0%" x2="100%" y2="100%">
      <stop offset="0%" stop-color="#0b2545" />
      <stop offset="100%" stop-color="#07172c" />
    </linearGradient>
    <linearGradient id="goldGrad" x1="0%" y1="0%" x2="100%" y2="100%">
      <stop offset="0%" stop-color="#f59e0b" />
      <stop offset="100%" stop-color="#d97706" />
    </linearGradient>
    <filter id="dropShadow" x="-10%" y="-10%" width="130%" height="130%">
      <feDropShadow dx="0" dy="1.5" stdDeviation="1.5" flood-color="#000000" flood-opacity="0.4"/>
    </filter>
  </defs>

  <!-- Base Badge Squircle -->
  <rect x="2" y="2" width="60" height="60" rx="14" fill="url(#bgGrad)" stroke="#1e3a8a" stroke-width="1.5"/>

  <!-- Tricolor Accent Dash at Top -->
  <rect x="22" y="6" width="7" height="2.5" rx="1.2" fill="#ff9933" />
  <rect x="30" y="6" width="4" height="2.5" rx="1.2" fill="#ffffff" />
  <rect x="35" y="6" width="7" height="2.5" rx="1.2" fill="#138808" />

  <!-- Metrology Scales -->
  <!-- Central Beam & Finial -->
  <path d="M14 22 C23 20 41 20 50 22" fill="none" stroke="url(#goldGrad)" stroke-width="3" stroke-linecap="round"/>
  <line x1="32" y1="16" x2="32" y2="46" stroke="#ffffff" stroke-width="3" stroke-linecap="round"/>
  <circle cx="32" cy="16" r="3" fill="#f59e0b" stroke="#ffffff" stroke-width="1"/>
  <path d="M22 46 L42 46" stroke="#ffffff" stroke-width="3.5" stroke-linecap="round"/>

  <!-- Left Scale Pan -->
  <line x1="17" y1="23" x2="11" y2="33" stroke="#94a3b8" stroke-width="1.6"/>
  <line x1="17" y1="23" x2="23" y2="33" stroke="#94a3b8" stroke-width="1.6"/>
  <path d="M10 33 Q17 39 24 33 Z" fill="#38bdf8"/>

  <!-- Right Scale Pan -->
  <line x1="47" y1="23" x2="41" y2="33" stroke="#94a3b8" stroke-width="1.6"/>
  <line x1="47" y1="23" x2="53" y2="33" stroke="#94a3b8" stroke-width="1.6"/>
  <path d="M40 33 Q47 39 54 33 Z" fill="#38bdf8"/>

  <!-- Verification Badge -->
  <g filter="url(#dropShadow)">
    <circle cx="47" cy="47" r="11" fill="#16a34a" stroke="#ffffff" stroke-width="2.2"/>
    <path d="M42.5 47 L45.8 50.3 L51.8 43.8" fill="none" stroke="#ffffff" stroke-width="2.5" stroke-linecap="round" stroke-linejoin="round"/>
  </g>
</svg>
